<?xml version="1.0" encoding="utf-8"?>
<!-- Generator: Adobe Illustrator 16.0.0, SVG Export Plug-In . SVG Version: 6.00 Build 0)  -->
<!DOCTYPE svg PUBLIC "-//W3C//DTD SVG 1.1//EN" "http://www.w3.org/Graphics/SVG/1.1/DTD/svg11.dtd">
<svg version="1.1" id="Layer_1" xmlns="http://www.w3.org/2000/svg" xmlns:xlink="http://www.w3.org/1999/xlink" x="0px" y="0px"
	 width="326px" height="60px" viewBox="0 0 326 60" enable-background="new 0 0 326 60" xml:space="preserve">
<g>
	<path fill="#00425A" d="M52.494,30.575c0-2.987-0.054-5.494-0.214-7.734h5.761l0.32,3.894h0.16c1.119-2.027,3.947-4.48,8.267-4.48
		c4.533,0,9.227,2.933,9.227,11.147v15.414h-6.561V34.149c0-3.733-1.387-6.561-4.96-6.561c-2.614,0-4.427,1.868-5.121,3.841
		c-0.212,0.586-0.267,1.386-0.267,2.133v15.254h-6.613V30.575z"/>
	<path fill="#00425A" d="M88.25,15.428v7.413h6.241v4.908H88.25v11.467c0,3.146,0.854,4.8,3.361,4.8c1.119,0,1.973-0.16,2.56-0.32
		l0.107,5.014c-0.96,0.373-2.667,0.64-4.747,0.64c-2.4,0-4.427-0.8-5.653-2.133c-1.387-1.494-2.027-3.84-2.027-7.254V27.749h-3.733
		v-4.908h3.733v-5.867L88.25,15.428z"/>
	<path fill="#00425A" d="M99.445,31.215c0-3.52-0.054-6.027-0.213-8.374h5.708l0.212,4.961h0.214c1.28-3.68,4.32-5.547,7.094-5.547
		c0.64,0,1.014,0.053,1.547,0.16v6.187c-0.533-0.107-1.121-0.214-1.92-0.214c-3.147,0-5.28,2.027-5.867,4.96
		c-0.106,0.587-0.213,1.28-0.213,2.027v13.44h-6.561V31.215z"/>
	<path fill="#00425A" d="M122.589,37.669c0.16,4.694,3.84,6.72,8,6.72c3.04,0,5.227-0.426,7.201-1.173l0.959,4.534
		c-2.24,0.907-5.333,1.6-9.067,1.6c-8.427,0-13.388-5.173-13.388-13.121c0-7.201,4.374-13.974,12.694-13.974
		c8.427,0,11.201,6.934,11.201,12.641c0,1.226-0.107,2.187-0.213,2.773H122.589z M134.003,33.082c0.053-2.4-1.014-6.347-5.387-6.347
		c-4.054,0-5.76,3.68-6.027,6.347H134.003z"/>
	<path fill="#00425A" d="M146.21,48.816V27.749h-3.52v-4.908h3.52v-1.119c0-3.361,0.906-6.721,3.146-8.854
		c1.92-1.813,4.534-2.507,6.774-2.507c1.76,0,3.146,0.267,4.213,0.64l-0.479,5.067c-0.694-0.267-1.601-0.48-2.774-0.48
		c-3.253,0-4.373,2.721-4.373,5.92v1.333h5.708v4.908h-5.655v21.067H146.21z"/>
	<path fill="#00425A" d="M168.58,41.67c2.133,1.227,5.333,2.293,8.694,2.293c4.213,0,6.561-1.974,6.561-4.907
		c0-2.72-1.814-4.32-6.401-5.974c-5.92-2.133-9.707-5.28-9.707-10.453c0-5.868,4.906-10.348,12.694-10.348
		c3.893,0,6.773,0.853,8.641,1.813l-1.601,5.28c-1.279-0.694-3.786-1.707-7.146-1.707c-4.161,0-5.973,2.24-5.973,4.32
		c0,2.773,2.079,4.054,6.88,5.92c6.24,2.347,9.281,5.494,9.281,10.667c0,5.76-4.374,10.774-13.654,10.774
		c-3.787,0-7.733-1.067-9.707-2.24L168.58,41.67z"/>
	<path fill="#00425A" d="M215.562,48.017c-1.387,0.64-4.107,1.333-7.36,1.333c-8.107,0-13.388-5.173-13.388-13.228
		c0-7.787,5.334-13.867,14.454-13.867c2.4,0,4.854,0.533,6.348,1.227l-1.174,4.906c-1.066-0.479-2.613-1.013-4.96-1.013
		c-5.014,0-8.001,3.68-7.948,8.427c0,5.333,3.468,8.374,7.948,8.374c2.293,0,3.894-0.48,5.173-1.014L215.562,48.017z"/>
	<path fill="#00425A" d="M220.408,10.948h6.613v15.467h0.107c0.8-1.227,1.866-2.24,3.254-2.986c1.28-0.747,2.826-1.173,4.479-1.173
		c4.428,0,9.067,2.933,9.067,11.253v15.308h-6.561V34.255c0-3.787-1.387-6.613-5.014-6.613c-2.561,0-4.374,1.707-5.066,3.68
		c-0.213,0.534-0.268,1.227-0.268,1.974v15.521h-6.613V10.948z"/>
	<path fill="#00425A" d="M275.604,35.589c0,9.547-6.721,13.814-13.335,13.814c-7.36,0-13.014-5.066-13.014-13.387
		c0-8.535,5.601-13.761,13.441-13.761C270.431,22.255,275.604,27.695,275.604,35.589z M256.03,35.855
		c0,5.014,2.452,8.801,6.453,8.801c3.733,0,6.347-3.68,6.347-8.908c0-4.053-1.812-8.693-6.294-8.693
		C257.896,27.055,256.03,31.535,256.03,35.855z"/>
	<path fill="#00425A" d="M305.679,35.589c0,9.547-6.721,13.814-13.335,13.814c-7.36,0-13.014-5.066-13.014-13.387
		c0-8.535,5.601-13.761,13.441-13.761C300.505,22.255,305.679,27.695,305.679,35.589z M286.104,35.855
		c0,5.014,2.453,8.801,6.453,8.801c3.733,0,6.347-3.68,6.347-8.908c0-4.053-1.813-8.693-6.293-8.693
		C287.971,27.055,286.104,31.535,286.104,35.855z"/>
	<path fill="#00425A" d="M311.059,10.948h6.613v37.868h-6.613V10.948z"/>
	<rect x="8" y="6" fill="#00425A" width="41" height="49"/>
</g>
<path fill="#FFFFFF" d="M21.361,12.868v20.961c0,7.04,2.934,10.293,7.36,10.293c4.747,0,7.573-3.253,7.573-10.293V12.868h6.561
	v20.535c0,11.093-5.706,16-14.347,16c-8.321,0-13.708-4.64-13.708-15.947V12.868H21.361z"/>
</svg>
